<?xml version="1.0" standalone="no"?>
<!DOCTYPE svg PUBLIC "-//W3C//DTD SVG 20010904//EN"
 "http://www.w3.org/TR/2001/REC-SVG-20010904/DTD/svg10.dtd">
<svg version="1.0" xmlns="http://www.w3.org/2000/svg"
 width="1252.000000pt" height="1252.000000pt" viewBox="0 0 1252.000000 1252.000000"
 preserveAspectRatio="xMidYMid meet">
<metadata>
Created by potrace 1.11, written by Peter Selinger 2001-2013
</metadata>
<g transform="translate(0.000000,1252.000000) scale(0.100000,-0.100000)"
fill="#000000" stroke="none">
<path d="M853 12513 c4 -6 2 -13 -5 -15 -10 -4 11653 -11678 11667 -11678 3 0
5 376 5 835 l0 836 -5005 5004 c-2752 2753 -5009 5005 -5015 5005 -5 0 -10 5
-10 11 0 6 -7 8 -16 5 -21 -8 -1587 -8 -1609 0 -12 5 -16 4 -12 -3z"/>
<path d="M4200 12505 c-10 -12 764 -790 4148 -4175 2288 -2288 4163 -4160
4166 -4160 3 0 6 376 6 834 l0 835 -3335 3335 -3336 3336 -757 1 c-416 0 -785
2 -819 4 -44 3 -65 0 -73 -10z"/>
<path d="M7533 12503 c-4 -10 4968 -4993 4982 -4993 3 0 5 376 5 836 l0 835
-1660 1660 c-913 912 -1664 1659 -1670 1659 -5 0 -10 3 -10 8 0 4 -370 7 -821
7 -618 0 -823 -3 -826 -12z"/>
<path d="M10886 12505 c-4 -13 195 -218 809 -831 448 -448 817 -814 820 -814
3 0 5 371 5 825 l0 825 -767 2 c-423 2 -778 0 -791 -4 -15 -5 -21 -4 -17 2 8
13 -5 13 -25 0 -9 -6 -17 -5 -21 1 -4 6 -9 4 -13 -6z"/>
<path d="M0 10824 l0 -835 4994 -4995 4995 -4994 835 0 c460 0 836 2 836 5 0
6 -11649 11655 -11655 11655 -3 0 -5 -376 -5 -836z"/>
<path d="M0 7475 l0 -835 3320 -3320 3320 -3320 835 0 c459 0 835 2 835 6 0 7
-8297 8304 -8304 8304 -3 0 -6 -376 -6 -835z"/>
<path d="M0 4135 l0 -836 1649 -1649 1650 -1650 835 0 c460 0 836 2 836 5 0 6
-4959 4965 -4965 4965 -3 0 -5 -376 -5 -835z"/>
<path d="M0 810 l0 -810 810 0 c446 0 810 3 810 6 0 7 -1607 1614 -1614 1614
-3 0 -6 -364 -6 -810z"/>
</g>
</svg>
